<svg width="73" height="72" viewBox="0 0 73 72" fill="none" xmlns="http://www.w3.org/2000/svg">
<g filter="url(#filter0_d_281_1843)">
<rect x="16.5804" y="12" width="40" height="40" rx="8" fill="#783EFD" shape-rendering="crispEdges"/>
<path d="M26.5804 35.29V25.71C26.5804 24.38 27.3504 24.06 28.2904 25L30.8804 27.59C31.2704 27.98 31.9104 27.98 32.2904 27.59L35.8704 24C36.2604 23.61 36.9004 23.61 37.2804 24L40.8704 27.59C41.2604 27.98 41.9004 27.98 42.2804 27.59L44.8704 25C45.8104 24.06 46.5804 24.38 46.5804 25.71V35.3C46.5804 38.3 44.5804 40.3 41.5804 40.3H31.5804C28.8204 40.29 26.5804 38.05 26.5804 35.29Z" fill="#F4FFFC"/>
</g>
<defs>
<filter id="filter0_d_281_1843" x="0.580383" y="0" width="72" height="72" filterUnits="userSpaceOnUse" color-interpolation-filters="sRGB">
<feFlood flood-opacity="0" result="BackgroundImageFix"/>
<feColorMatrix in="SourceAlpha" type="matrix" values="0 0 0 0 0 0 0 0 0 0 0 0 0 0 0 0 0 0 127 0" result="hardAlpha"/>
<feOffset dy="4"/>
<feGaussianBlur stdDeviation="8"/>
<feComposite in2="hardAlpha" operator="out"/>
<feColorMatrix type="matrix" values="0 0 0 0 0.623529 0 0 0 0 0.596078 0 0 0 0 0.996078 0 0 0 0.64 0"/>
<feBlend mode="normal" in2="BackgroundImageFix" result="effect1_dropShadow_281_1843"/>
<feBlend mode="normal" in="SourceGraphic" in2="effect1_dropShadow_281_1843" result="shape"/>
</filter>
</defs>
</svg>
