<svg width="73" height="72" viewBox="0 0 73 72" fill="none" xmlns="http://www.w3.org/2000/svg">
<g filter="url(#filter0_d_281_1850)">
<rect x="16.5804" y="12" width="40" height="40" rx="8" fill="#00DEA3" shape-rendering="crispEdges"/>
<path d="M42.1104 27.77C42.0404 27.76 41.9704 27.76 41.9004 27.77C40.3504 27.72 39.1204 26.45 39.1204 24.89C39.1204 23.3 40.4104 22 42.0104 22C43.6004 22 44.9004 23.29 44.9004 24.89C44.8904 26.45 43.6604 27.72 42.1104 27.77Z" fill="#F4FFFC"/>
<path d="M45.3704 34.7C44.2504 35.45 42.6804 35.73 41.2304 35.54C41.6104 34.72 41.8104 33.81 41.8204 32.85C41.8204 31.85 41.6004 30.9 41.1804 30.07C42.6604 29.87 44.2304 30.15 45.3604 30.9C46.9404 31.94 46.9404 33.65 45.3704 34.7Z" fill="#F4FFFC"/>
<path d="M31.0204 27.77C31.0904 27.76 31.1604 27.76 31.2304 27.77C32.7804 27.72 34.0104 26.45 34.0104 24.89C34.0104 23.29 32.7204 22 31.1204 22C29.5304 22 28.2404 23.29 28.2404 24.89C28.2404 26.45 29.4704 27.72 31.0204 27.77Z" fill="#F4FFFC"/>
<path d="M31.1304 32.85C31.1304 33.82 31.3404 34.74 31.7204 35.57C30.3104 35.72 28.8404 35.42 27.7604 34.71C26.1804 33.66 26.1804 31.95 27.7604 30.9C28.8304 30.18 30.3404 29.89 31.7604 30.05C31.3504 30.89 31.1304 31.84 31.1304 32.85Z" fill="#F4FFFC"/>
<path d="M36.7004 35.87C36.6204 35.86 36.5304 35.86 36.4404 35.87C34.6004 35.81 33.1304 34.3 33.1304 32.44C33.1404 30.54 34.6704 29 36.5804 29C38.4804 29 40.0204 30.54 40.0204 32.44C40.0104 34.3 38.5504 35.81 36.7004 35.87Z" fill="#F4FFFC"/>
<path d="M33.4504 37.94C31.9404 38.95 31.9404 40.61 33.4504 41.61C35.1704 42.76 37.9904 42.76 39.7104 41.61C41.2204 40.6 41.2204 38.94 39.7104 37.94C38.0004 36.79 35.1804 36.79 33.4504 37.94Z" fill="#F4FFFC"/>
</g>
<defs>
<filter id="filter0_d_281_1850" x="0.580383" y="0" width="72" height="72" filterUnits="userSpaceOnUse" color-interpolation-filters="sRGB">
<feFlood flood-opacity="0" result="BackgroundImageFix"/>
<feColorMatrix in="SourceAlpha" type="matrix" values="0 0 0 0 0 0 0 0 0 0 0 0 0 0 0 0 0 0 127 0" result="hardAlpha"/>
<feOffset dy="4"/>
<feGaussianBlur stdDeviation="8"/>
<feComposite in2="hardAlpha" operator="out"/>
<feColorMatrix type="matrix" values="0 0 0 0 0.501961 0 0 0 0 0.917647 0 0 0 0 1 0 0 0 0.64 0"/>
<feBlend mode="normal" in2="BackgroundImageFix" result="effect1_dropShadow_281_1850"/>
<feBlend mode="normal" in="SourceGraphic" in2="effect1_dropShadow_281_1850" result="shape"/>
</filter>
</defs>
</svg>
