<svg width="335" height="230" viewBox="0 0 335 230" fill="none" xmlns="http://www.w3.org/2000/svg">
<mask id="mask0_307_1837" style="mask-type:alpha" maskUnits="userSpaceOnUse" x="0" y="35" width="335" height="195">
<rect x="0.335938" y="35.6508" width="334.664" height="194.349" rx="16" fill="white"/>
</mask>
<g mask="url(#mask0_307_1837)">
<path d="M-57.9343 112.253H-80.6675C-81.772 112.253 -82.6675 113.148 -82.6675 114.253V180.169C-82.6675 181.274 -81.772 182.169 -80.6675 182.169H687.309C688.414 182.169 689.309 181.274 689.309 180.169V114.253C689.309 113.148 688.414 112.253 687.309 112.253H566.333C565.853 112.253 565.39 112.08 565.026 111.767L537.166 87.7326C536.447 87.1122 535.391 87.0832 534.638 87.6633L514.25 103.387C513.541 103.934 512.554 103.943 511.835 103.408L490.477 87.5244C489.788 87.0119 488.849 86.9965 488.143 87.4862L464.81 103.682C464.245 104.074 463.518 104.149 462.886 103.879L447.363 97.2678C446.25 96.7935 444.973 97.4093 444.651 98.5761L422.154 180.154C421.657 181.957 419.176 182.152 418.404 180.447L400.032 139.895C399.708 139.18 398.996 138.721 398.21 138.721H380.658C379.771 138.721 378.99 138.137 378.74 137.286L357.587 65.5059C357.092 63.8269 354.832 63.5486 353.944 65.0574L331.991 102.391C331.387 103.417 330.028 103.692 329.073 102.982L308.657 87.7996C307.803 87.1646 306.602 87.3093 305.923 88.1289L286.549 111.528C286.169 111.987 285.604 112.253 285.009 112.253H209.158C208.436 112.253 207.77 111.863 207.415 111.234L193.716 86.9029C193.628 86.7461 193.519 86.602 193.392 86.4744L170.006 62.9375C169.077 62.0022 167.513 62.2062 166.854 63.3485L158.284 78.2204C158.094 78.5508 157.813 78.8198 157.475 78.9958L125.502 95.6402C124.679 96.0688 123.669 95.8746 123.063 95.1712L104.456 73.5633C103.423 72.364 101.473 72.7826 101.023 74.3002L79.7858 145.972C79.1928 147.973 76.3158 147.842 75.9069 145.795L56.4712 48.5083C56.1131 46.7157 53.7361 46.3034 52.7952 47.8707L34.5556 78.2552C34.3705 78.5635 34.1058 78.8162 33.7892 78.9867L9.90319 91.8501C9.76714 91.9233 9.64002 92.0121 9.52441 92.1147L-12.0255 111.228C-12.7063 111.831 -13.7088 111.9 -14.465 111.393L-35.7056 97.1767C-36.4233 96.6963 -37.3683 96.7309 -38.049 97.2624L-56.7034 111.829C-57.055 112.104 -57.4883 112.253 -57.9343 112.253Z" fill="url(#paint0_linear_307_1837)"/>
<path d="M-82.6675 112.253H-57.9343C-57.4883 112.253 -57.055 112.104 -56.7034 111.829L-38.049 97.2624C-37.3683 96.7309 -36.4233 96.6963 -35.7056 97.1767L-14.465 111.393C-13.7088 111.9 -12.7063 111.831 -12.0255 111.228L9.5244 92.1147C9.64002 92.0121 9.76712 91.9233 9.90318 91.8501L33.7891 78.9867C34.1058 78.8162 34.3705 78.5635 34.5556 78.2552L52.7952 47.8707C53.736 46.3034 56.1131 46.7157 56.4712 48.5083L75.9069 145.795C76.3158 147.842 79.1928 147.973 79.7858 145.972L101.023 74.3002C101.473 72.7826 103.423 72.364 104.456 73.5633L123.063 95.1712C123.669 95.8746 124.679 96.0688 125.502 95.6402L157.475 78.9958C157.813 78.8198 158.094 78.5508 158.284 78.2204L166.854 63.3485C167.513 62.2062 169.077 62.0022 170.006 62.9375L193.392 86.4744C193.519 86.602 193.628 86.7461 193.716 86.9029L207.415 111.234C207.77 111.863 208.436 112.253 209.158 112.253H285.009C285.604 112.253 286.169 111.987 286.549 111.528L305.923 88.1289C306.602 87.3093 307.803 87.1646 308.657 87.7996L329.073 102.982C330.028 103.692 331.387 103.417 331.991 102.391L353.944 65.0574C354.832 63.5486 357.092 63.8269 357.587 65.5059L378.74 137.286C378.99 138.137 379.771 138.721 380.658 138.721H398.21C398.996 138.721 399.708 139.18 400.032 139.895L418.404 180.447C419.176 182.152 421.657 181.957 422.154 180.154L444.651 98.5761C444.973 97.4093 446.25 96.7935 447.363 97.2678L462.885 103.879C463.518 104.149 464.245 104.074 464.81 103.682L488.143 87.4862C488.849 86.9965 489.788 87.0119 490.477 87.5244L511.835 103.408C512.554 103.943 513.541 103.934 514.25 103.387L534.638 87.6633C535.391 87.0832 536.447 87.1122 537.166 87.7326L565.026 111.767C565.39 112.08 565.853 112.253 566.333 112.253H689.309" stroke="#00DEA3" stroke-width="3"/>
<path d="M-25.0171 142.615H-76.048C-77.7048 142.615 -79.048 143.959 -79.048 145.615V249.666C-79.048 251.323 -77.7048 252.666 -76.048 252.666H675.972C677.629 252.666 678.972 251.323 678.972 249.666V145.615C678.972 143.959 677.629 142.615 675.972 142.615H659.169C658.95 142.615 658.73 142.591 658.516 142.543L616.881 133.255C616.667 133.207 616.448 133.183 616.228 133.183H565.784C565.41 133.183 565.04 133.252 564.692 133.388L541.585 142.41C541.237 142.546 540.867 142.615 540.494 142.615H509.474C509.059 142.615 508.649 142.701 508.27 142.868L490.038 150.86C489.826 150.953 489.625 151.071 489.44 151.21L471.936 164.372C471.712 164.54 471.513 164.739 471.344 164.962L461.127 178.502C460.736 179.019 460.189 179.396 459.566 179.576L443.018 184.362C442.614 184.479 442.239 184.679 441.918 184.95L423.317 200.628C422.149 201.613 420.427 201.562 419.319 200.511L375.965 159.385L354.278 142.963C353.974 142.733 353.63 142.564 353.264 142.462L319.592 133.183L304.515 127.296C303.851 127.037 303.115 127.022 302.441 127.256L259.937 142.007C258.864 142.38 257.672 142.114 256.858 141.32L244.055 128.823C242.938 127.733 241.172 127.681 239.993 128.703L224.805 141.881C224.259 142.355 223.561 142.615 222.839 142.615H191.138C190.247 142.615 189.402 142.219 188.832 141.535L176.834 127.121C176.709 126.97 176.569 126.832 176.416 126.708L161.655 114.755C160.094 113.491 157.757 114.087 156.993 115.944L152.772 126.197C152.584 126.654 152.285 127.058 151.903 127.373L134.189 141.933C133.652 142.374 132.979 142.615 132.284 142.615H114.345C113.623 142.615 112.925 142.876 112.379 143.349L73.8719 176.76C72.3902 178.045 70.0935 177.586 69.2198 175.83L43.3776 123.874C42.5358 122.181 40.3578 121.68 38.8605 122.833L-6.38025 157.689C-7.6222 158.646 -9.3915 158.485 -10.4406 157.32L-22.7878 143.608C-23.3567 142.976 -24.1669 142.615 -25.0171 142.615Z" fill="url(#paint1_linear_307_1837)" stroke="#5A55D2" stroke-width="3" stroke-linejoin="round"/>
</g>
<path d="M160.585 1.36331V222.584" stroke="url(#paint2_linear_307_1837)" stroke-width="2" stroke-linecap="round" stroke-linejoin="round"/>
<circle opacity="0.2" cx="160.585" cy="73.9998" r="28" fill="url(#paint3_radial_307_1837)"/>
<g filter="url(#filter0_d_307_1837)">
<circle cx="160.585" cy="73.9998" r="8" fill="#00DEA3"/>
</g>
<path d="M159.246 183.347L161.07 180.887V179.903H156.03V180.947H159.762L157.818 183.575L158.262 184.259H158.55C159.558 184.259 160.314 184.811 160.314 185.819C160.314 186.815 159.558 187.367 158.55 187.367C157.638 187.367 156.978 186.983 156.726 186.203L155.79 186.755C156.222 187.883 157.314 188.459 158.55 188.459C160.062 188.459 161.43 187.523 161.43 185.819C161.43 184.427 160.458 183.575 159.246 183.347ZM162.971 183.719C163.415 183.719 163.751 183.371 163.751 182.939C163.751 182.507 163.415 182.159 162.971 182.159C162.539 182.159 162.191 182.507 162.191 182.939C162.191 183.371 162.539 183.719 162.971 183.719ZM162.971 188.435C163.415 188.435 163.751 188.087 163.751 187.655C163.751 187.223 163.415 186.875 162.971 186.875C162.539 186.875 162.191 187.223 162.191 187.655C162.191 188.087 162.539 188.435 162.971 188.435ZM167.436 183.179H166.212L166.356 180.947H169.944V179.903H165.348L165.036 184.259H167.412C168.408 184.259 169.164 184.811 169.164 185.819C169.164 186.815 168.408 187.367 167.388 187.367C166.476 187.367 165.792 186.947 165.564 186.119L164.616 186.659C165.024 187.859 166.152 188.459 167.388 188.459C168.9 188.459 170.268 187.523 170.268 185.819C170.268 184.103 168.936 183.179 167.436 183.179ZM176.229 182.567C176.229 180.899 175.029 179.747 173.337 179.747C171.645 179.747 170.445 180.899 170.445 182.567C170.445 184.235 171.645 185.387 173.337 185.387C173.481 185.387 173.613 185.375 173.745 185.363L171.753 188.303H173.013L175.725 184.259H175.713C176.049 183.791 176.229 183.227 176.229 182.567ZM171.549 182.567C171.549 181.511 172.281 180.815 173.337 180.815C174.393 180.815 175.125 181.499 175.125 182.567C175.125 183.635 174.393 184.331 173.337 184.331C172.281 184.331 171.549 183.635 171.549 182.567ZM182.277 188.303H183.465L180.333 179.903H179.073L175.941 188.303H177.129L177.813 186.419H181.593L182.277 188.303ZM178.197 185.375L179.697 181.235L181.209 185.375H178.197ZM192.076 179.903H190.816L188.152 184.343L185.476 179.903H184.216V188.303H185.332V181.751L188.08 186.311H188.224L190.972 181.739V188.303H192.076V179.903Z" fill="#00523C"/>
<defs>
<filter id="filter0_d_307_1837" x="144.585" y="61.9998" width="32" height="32" filterUnits="userSpaceOnUse" color-interpolation-filters="sRGB">
<feFlood flood-opacity="0" result="BackgroundImageFix"/>
<feColorMatrix in="SourceAlpha" type="matrix" values="0 0 0 0 0 0 0 0 0 0 0 0 0 0 0 0 0 0 127 0" result="hardAlpha"/>
<feOffset dy="4"/>
<feGaussianBlur stdDeviation="4"/>
<feComposite in2="hardAlpha" operator="out"/>
<feColorMatrix type="matrix" values="0 0 0 0 0 0 0 0 0 0.870588 0 0 0 0 0.639216 0 0 0 0.32 0"/>
<feBlend mode="normal" in2="BackgroundImageFix" result="effect1_dropShadow_307_1837"/>
<feBlend mode="normal" in="SourceGraphic" in2="effect1_dropShadow_307_1837" result="shape"/>
</filter>
<linearGradient id="paint0_linear_307_1837" x1="316.975" y1="-67.6278" x2="316.975" y2="161.221" gradientUnits="userSpaceOnUse">
<stop offset="0.171875" stop-color="#18BFEF"/>
<stop offset="0.880208" stop-color="#D3FF76" stop-opacity="0"/>
</linearGradient>
<linearGradient id="paint1_linear_307_1837" x1="311.909" y1="69.6053" x2="313.248" y2="215.024" gradientUnits="userSpaceOnUse">
<stop offset="0.113029" stop-color="#5A55D2" stop-opacity="0.24"/>
<stop offset="1" stop-color="#5A55D2" stop-opacity="0"/>
</linearGradient>
<linearGradient id="paint2_linear_307_1837" x1="160.585" y1="222.584" x2="160.585" y2="1.36331" gradientUnits="userSpaceOnUse">
<stop stop-color="#00DEA3" stop-opacity="0"/>
<stop offset="0.457573" stop-color="#00DEA3"/>
<stop offset="1" stop-color="#00DEA3" stop-opacity="0"/>
</linearGradient>
<radialGradient id="paint3_radial_307_1837" cx="0" cy="0" r="1" gradientUnits="userSpaceOnUse" gradientTransform="translate(160.585 73.9998) rotate(28.5925) scale(39.0214)">
<stop stop-color="#00DEA3"/>
<stop offset="1" stop-color="#00DEA3" stop-opacity="0"/>
</radialGradient>
</defs>
</svg>
