<svg width="41" height="40" viewBox="0 0 41 40" fill="none" xmlns="http://www.w3.org/2000/svg">
<rect x="0.731934" width="40" height="40" rx="8" fill="#311D05"/>
<path fill-rule="evenodd" clip-rule="evenodd" d="M17.2376 18.5634L20.7336 15.0689L24.2311 18.5662L26.2642 16.5318L20.7336 11L15.2031 16.5304L17.2376 18.5634ZM11.7319 20.0003L13.7657 17.9666L15.7994 20.0003L13.7657 22.034L11.7319 20.0003ZM20.7336 24.9324L17.2375 21.4365L15.2002 23.4681L15.203 23.4709L20.7336 28.9999L26.2641 23.4681L26.2655 23.4667L24.231 21.4351L20.7336 24.9324ZM25.6641 20.0007L27.6978 17.967L29.7316 20.0007L27.6978 22.0344L25.6641 20.0007ZM20.7333 17.9348L22.7962 19.9991H22.7976L22.7962 20.0005L20.7333 22.0648L18.6703 20.0034L18.6675 19.9991L18.6703 19.9963L19.0314 19.6352L19.2077 19.4603L20.7333 17.9348Z" fill="#F3BA2F"/>
</svg>
