<svg width="832" height="292" viewBox="0 0 832 292" fill="none" xmlns="http://www.w3.org/2000/svg">
<mask id="mask0_281_1739" style="mask-type:alpha" maskUnits="userSpaceOnUse" x="0" y="74" width="832" height="218">
<rect x="0.580383" y="74.166" width="831.004" height="217.015" rx="16" fill="white"/>
</mask>
<g mask="url(#mask0_281_1739)">
<path d="M12.6062 151.303H-13.2004C-14.3049 151.303 -15.2004 152.199 -15.2004 153.303V227.672C-15.2004 228.777 -14.3049 229.672 -13.2004 229.672H848.107C849.212 229.672 850.107 228.777 850.107 227.672V153.303C850.107 152.199 849.212 151.303 848.107 151.303H712.173C711.694 151.303 711.23 151.131 710.867 150.818L679.421 123.69C678.702 123.069 677.645 123.041 676.893 123.621L653.739 141.478C653.03 142.025 652.043 142.033 651.324 141.499L627.097 123.482C626.408 122.969 625.469 122.954 624.763 123.444L598.356 141.773C597.791 142.165 597.065 142.239 596.432 141.97L578.656 134.398C577.542 133.924 576.266 134.54 575.944 135.707L550.476 228.058C549.978 229.861 547.498 230.055 546.726 228.351L525.793 182.146C525.469 181.431 524.756 180.971 523.971 180.971H503.96C503.073 180.971 502.292 180.387 502.041 179.537L478.122 98.3699C477.628 96.6909 475.367 96.4126 474.48 97.9214L449.453 140.482C448.85 141.508 447.49 141.783 446.535 141.073L423.251 123.757C422.397 123.122 421.195 123.267 420.517 124.086L398.581 150.579C398.201 151.038 397.637 151.303 397.041 151.303H311.765C311.043 151.303 310.377 150.914 310.022 150.284L294.581 122.86C294.493 122.703 294.384 122.559 294.257 122.432L267.798 95.8015C266.869 94.8662 265.305 95.0702 264.646 96.2125L254.847 113.218C254.656 113.548 254.375 113.817 254.037 113.993L217.967 132.771C217.143 133.199 216.133 133.005 215.528 132.302L194.257 107.601C193.224 106.401 191.274 106.82 190.824 108.338L166.616 190.036C166.023 192.037 163.146 191.906 162.737 189.859L140.637 79.239C140.279 77.4464 137.902 77.0341 136.961 78.6015L116.161 113.253C115.976 113.561 115.711 113.814 115.394 113.984L88.5372 128.447C88.4011 128.521 88.274 128.609 88.1584 128.712L63.8424 150.278C63.1616 150.882 62.159 150.95 61.4029 150.444L37.2937 134.307C36.576 133.827 35.631 133.862 34.9504 134.393L13.8371 150.88C13.4855 151.154 13.0523 151.303 12.6062 151.303Z" fill="url(#paint0_linear_281_1739)"/>
<path d="M-15.2004 151.303H12.6062C13.0523 151.303 13.4855 151.154 13.8371 150.88L34.9504 134.393C35.631 133.862 36.576 133.827 37.2937 134.307L61.4028 150.444C62.159 150.95 63.1616 150.882 63.8424 150.278L88.1584 128.712C88.274 128.609 88.4011 128.521 88.5372 128.447L115.394 113.984C115.711 113.814 115.976 113.561 116.161 113.253L136.961 78.6015C137.902 77.0341 140.279 77.4464 140.637 79.239L162.737 189.859C163.146 191.906 166.023 192.037 166.616 190.036L190.824 108.338C191.274 106.82 193.224 106.401 194.257 107.601L215.528 132.302C216.133 133.005 217.143 133.199 217.967 132.771L254.037 113.993C254.375 113.817 254.656 113.548 254.847 113.218L264.646 96.2125C265.305 95.0702 266.869 94.8662 267.798 95.8015L294.257 122.432C294.384 122.559 294.493 122.703 294.581 122.86L310.022 150.284C310.377 150.914 311.043 151.303 311.765 151.303H397.041C397.637 151.303 398.201 151.038 398.581 150.579L420.517 124.086C421.195 123.267 422.397 123.122 423.251 123.757L446.535 141.073C447.49 141.783 448.85 141.508 449.453 140.482L474.48 97.9214C475.367 96.4126 477.628 96.6909 478.122 98.3699L502.041 179.537C502.292 180.387 503.073 180.971 503.96 180.971H523.971C524.756 180.971 525.469 181.431 525.793 182.146L546.726 228.351C547.498 230.055 549.978 229.861 550.476 228.058L575.944 135.707C576.266 134.54 577.542 133.924 578.656 134.398L596.432 141.97C597.065 142.239 597.791 142.165 598.356 141.773L624.763 123.444C625.469 122.954 626.408 122.969 627.097 123.482L651.324 141.499C652.043 142.033 653.03 142.025 653.739 141.478L676.893 123.621C677.645 123.041 678.702 123.07 679.421 123.69L710.867 150.818C711.23 151.131 711.694 151.303 712.173 151.303H850.107" stroke="#00DEA3" stroke-width="3"/>
<path d="M49.5813 185.337H-8.14325C-9.8001 185.337 -11.1432 186.68 -11.1432 188.337V305.692C-11.1432 307.349 -9.80011 308.692 -8.14326 308.692H835.52C837.177 308.692 838.52 307.349 838.52 305.692V188.337C838.52 186.68 837.177 185.337 835.52 185.337H816.283C816.064 185.337 815.845 185.313 815.63 185.265L768.884 174.836C768.669 174.788 768.45 174.764 768.231 174.764H711.579C711.206 174.764 710.836 174.833 710.488 174.969L684.46 185.131C684.112 185.267 683.742 185.337 683.368 185.337H648.454C648.039 185.337 647.629 185.423 647.25 185.589L626.706 194.595C626.494 194.688 626.293 194.806 626.107 194.945L606.413 209.754C606.189 209.923 605.99 210.121 605.821 210.345L594.265 225.658C593.875 226.176 593.327 226.553 592.704 226.733L573.965 232.152C573.562 232.269 573.187 232.469 572.865 232.74L551.709 250.572C550.541 251.557 548.819 251.506 547.711 250.455L498.88 204.134L474.515 185.684C474.212 185.455 473.868 185.285 473.501 185.184L435.692 174.764L418.668 168.117C418.003 167.857 417.267 167.843 416.593 168.077L368.613 184.729C367.539 185.101 366.347 184.835 365.534 184.042L350.783 169.643C349.666 168.553 347.9 168.501 346.722 169.524L329.342 184.603C328.797 185.076 328.099 185.337 327.376 185.337H291.538C290.647 185.337 289.802 184.941 289.232 184.256L275.652 167.941C275.526 167.791 275.386 167.653 275.234 167.529L258.282 153.801C256.721 152.538 254.384 153.134 253.62 154.991L248.669 167.018C248.481 167.475 248.182 167.879 247.8 168.193L227.773 184.654C227.236 185.096 226.563 185.337 225.868 185.337H205.496C204.773 185.337 204.075 185.598 203.53 186.071L159.911 223.916C158.429 225.202 156.132 224.743 155.259 222.986L125.887 163.934C125.045 162.242 122.867 161.74 121.37 162.894L70.0438 202.438C68.8018 203.395 67.0325 203.234 65.9834 202.069L51.8107 186.329C51.2418 185.698 50.4315 185.337 49.5813 185.337Z" fill="url(#paint1_linear_281_1739)" stroke="#5A55D2" stroke-width="3" stroke-linejoin="round"/>
</g>
<path d="M267.58 1V291" stroke="url(#paint2_linear_281_1739)" stroke-width="2" stroke-linecap="round" stroke-linejoin="round"/>
<circle opacity="0.2" cx="267.965" cy="93.9519" r="36" fill="url(#paint3_radial_281_1739)"/>
<g filter="url(#filter0_d_281_1739)">
<circle cx="267.965" cy="93.9519" r="8" fill="#00DEA3"/>
</g>
<path d="M252.613 230.176L254.437 227.716V226.732H249.397V227.776H253.129L251.185 230.404L251.629 231.088H251.917C252.925 231.088 253.681 231.64 253.681 232.648C253.681 233.644 252.925 234.196 251.917 234.196C251.005 234.196 250.345 233.812 250.093 233.032L249.157 233.584C249.589 234.712 250.681 235.288 251.917 235.288C253.429 235.288 254.797 234.352 254.797 232.648C254.797 231.256 253.825 230.404 252.613 230.176ZM256.338 230.548C256.782 230.548 257.118 230.2 257.118 229.768C257.118 229.336 256.782 228.988 256.338 228.988C255.906 228.988 255.558 229.336 255.558 229.768C255.558 230.2 255.906 230.548 256.338 230.548ZM256.338 235.264C256.782 235.264 257.118 234.916 257.118 234.484C257.118 234.052 256.782 233.704 256.338 233.704C255.906 233.704 255.558 234.052 255.558 234.484C255.558 234.916 255.906 235.264 256.338 235.264ZM260.804 230.008H259.58L259.724 227.776H263.312V226.732H258.716L258.404 231.088H260.78C261.776 231.088 262.532 231.64 262.532 232.648C262.532 233.644 261.776 234.196 260.756 234.196C259.844 234.196 259.16 233.776 258.932 232.948L257.984 233.488C258.392 234.688 259.52 235.288 260.756 235.288C262.268 235.288 263.636 234.352 263.636 232.648C263.636 230.932 262.304 230.008 260.804 230.008ZM269.596 229.396C269.596 227.728 268.396 226.576 266.704 226.576C265.012 226.576 263.812 227.728 263.812 229.396C263.812 231.064 265.012 232.216 266.704 232.216C266.848 232.216 266.98 232.204 267.112 232.192L265.12 235.132H266.38L269.092 231.088H269.08C269.416 230.62 269.596 230.056 269.596 229.396ZM264.916 229.396C264.916 228.34 265.648 227.644 266.704 227.644C267.76 227.644 268.492 228.328 268.492 229.396C268.492 230.464 267.76 231.16 266.704 231.16C265.648 231.16 264.916 230.464 264.916 229.396ZM275.645 235.132H276.833L273.701 226.732H272.441L269.309 235.132H270.497L271.181 233.248H274.961L275.645 235.132ZM271.565 232.204L273.065 228.064L274.577 232.204H271.565ZM285.444 226.732H284.184L281.52 231.172L278.844 226.732H277.584V235.132H278.7V228.58L281.448 233.14H281.592L284.34 228.568V235.132H285.444V226.732Z" fill="#00523C"/>
<defs>
<filter id="filter0_d_281_1739" x="251.965" y="81.9519" width="32" height="32" filterUnits="userSpaceOnUse" color-interpolation-filters="sRGB">
<feFlood flood-opacity="0" result="BackgroundImageFix"/>
<feColorMatrix in="SourceAlpha" type="matrix" values="0 0 0 0 0 0 0 0 0 0 0 0 0 0 0 0 0 0 127 0" result="hardAlpha"/>
<feOffset dy="4"/>
<feGaussianBlur stdDeviation="4"/>
<feComposite in2="hardAlpha" operator="out"/>
<feColorMatrix type="matrix" values="0 0 0 0 0 0 0 0 0 0.870588 0 0 0 0 0.639216 0 0 0 0.32 0"/>
<feBlend mode="normal" in2="BackgroundImageFix" result="effect1_dropShadow_281_1739"/>
<feBlend mode="normal" in="SourceGraphic" in2="effect1_dropShadow_281_1739" result="shape"/>
</filter>
<linearGradient id="paint0_linear_281_1739" x1="432.758" y1="-50.3245" x2="432.758" y2="206.191" gradientUnits="userSpaceOnUse">
<stop offset="0.171875" stop-color="#18BFEF"/>
<stop offset="0.880208" stop-color="#D3FF76" stop-opacity="0"/>
</linearGradient>
<linearGradient id="paint1_linear_281_1739" x1="427.08" y1="103.5" x2="428.58" y2="266.5" gradientUnits="userSpaceOnUse">
<stop offset="0.113029" stop-color="#5A55D2" stop-opacity="0.24"/>
<stop offset="1" stop-color="#5A55D2" stop-opacity="0"/>
</linearGradient>
<linearGradient id="paint2_linear_281_1739" x1="267.58" y1="291" x2="267.58" y2="1" gradientUnits="userSpaceOnUse">
<stop stop-color="#00DEA3" stop-opacity="0"/>
<stop offset="0.457573" stop-color="#00DEA3"/>
<stop offset="1" stop-color="#00DEA3" stop-opacity="0"/>
</linearGradient>
<radialGradient id="paint3_radial_281_1739" cx="0" cy="0" r="1" gradientUnits="userSpaceOnUse" gradientTransform="translate(267.965 93.9518) rotate(28.5925) scale(50.1704)">
<stop stop-color="#00DEA3"/>
<stop offset="1" stop-color="#00DEA3" stop-opacity="0"/>
</radialGradient>
</defs>
</svg>
